osim_states
version=1
nRows=4
nColumns=185
inDegrees=yes

# SIMM Motion File Header:
name osim_states
datacolumns 185
datarows 4
otherdata 1
range 0.10680662 0.10727878
endheader
time	platform_rx	platform_ry	platform_rz	platform_ty	pelvis_tilt	pelvis_list	pelvis_rotation	pelvis_tx	pelvis_ty	pelvis_tz	hip_flexion_r	hip_adduction_r	hip_rotation_r	knee_angle_r	patella_r_constrained_knee_angle	ankle_angle_r	subtalar_angle_r	mtp_angle_r	hip_flexion_l	hip_adduction_l	hip_rotation_l	knee_angle_l	patella_l_constrained_knee_angle	ankle_angle_l	subtalar_angle_l	mtp_angle_l	lumbar_extension	lumbar_bending	lumbar_rotation	arm_flex_r	arm_add_r	arm_rot_r	elbow_flex_r	pro_sup_r	wrist_flex_r	wrist_dev_r	arm_flex_l	arm_add_l	arm_rot_l	elbow_flex_l	pro_sup_l	wrist_flex_l	wrist_dev_l	platform_rx_u	platform_ry_u	platform_rz_u	platform_ty_u	pelvis_tilt_u	pelvis_list_u	pelvis_rotation_u	pelvis_tx_u	pelvis_ty_u	pelvis_tz_u	hip_flexion_r_u	hip_adduction_r_u	hip_rotation_r_u	knee_angle_r_u	patella_r_constrained_knee_angle_u	ankle_angle_r_u	subtalar_angle_r_u	mtp_angle_r_u	hip_flexion_l_u	hip_adduction_l_u	hip_rotation_l_u	knee_angle_l_u	patella_l_constrained_knee_angle_u	ankle_angle_l_u	subtalar_angle_l_u	mtp_angle_l_u	lumbar_extension_u	lumbar_bending_u	lumbar_rotation_u	arm_flex_r_u	arm_add_r_u	arm_rot_r_u	elbow_flex_r_u	pro_sup_r_u	wrist_flex_r_u	wrist_dev_r_u	arm_flex_l_u	arm_add_l_u	arm_rot_l_u	elbow_flex_l_u	pro_sup_l_u	wrist_flex_l_u	wrist_dev_l_u	glut_med1_r.activation	glut_med1_r.fiber_length	glut_med2_r.activation	glut_med2_r.fiber_length	glut_med3_r.activation	glut_med3_r.fiber_length	glut_min1_r.activation	glut_min1_r.fiber_length	glut_min2_r.activation	glut_min2_r.fiber_length	glut_min3_r.activation	glut_min3_r.fiber_length	semimem_r.activation	semimem_r.fiber_length	semiten_r.activation	semiten_r.fiber_length	bifemlh_r.activation	bifemlh_r.fiber_length	bifemsh_r.activation	bifemsh_r.fiber_length	sar_r.activation	sar_r.fiber_length	add_long_r.activation	add_long_r.fiber_length	add_brev_r.activation	add_brev_r.fiber_length	add_mag1_r.activation	add_mag1_r.fiber_length	add_mag2_r.activation	add_mag2_r.fiber_length	add_mag3_r.activation	add_mag3_r.fiber_length	tfl_r.activation	tfl_r.fiber_length	pect_r.activation	pect_r.fiber_length	grac_r.activation	grac_r.fiber_length	glut_max1_r.activation	glut_max1_r.fiber_length	glut_max2_r.activation	glut_max2_r.fiber_length	glut_max3_r.activation	glut_max3_r.fiber_length	iliacus_r.activation	iliacus_r.fiber_length	psoas_r.activation	psoas_r.fiber_length	quad_fem_r.activation	quad_fem_r.fiber_length	gem_r.activation	gem_r.fiber_length	peri_r.activation	peri_r.fiber_length	rect_fem_r.activation	rect_fem_r.fiber_length	vas_med_r.activation	vas_med_r.fiber_length	vas_int_r.activation	vas_int_r.fiber_length	vas_lat_r.activation	vas_lat_r.fiber_length	med_gas_r.activation	med_gas_r.fiber_length	lat_gas_r.activation	lat_gas_r.fiber_length	soleus_r.activation	soleus_r.fiber_length	tib_post_r.activation	tib_post_r.fiber_length	flex_dig_r.activation	flex_dig_r.fiber_length	flex_hal_r.activation	flex_hal_r.fiber_length	tib_ant_r.activation	tib_ant_r.fiber_length	per_brev_r.activation	per_brev_r.fiber_length	per_long_r.activation	per_long_r.fiber_length	per_tert_r.activation	per_tert_r.fiber_length	ext_dig_r.activation	ext_dig_r.fiber_length	ext_hal_r.activation	ext_hal_r.fiber_length	ercspn_r.activation	ercspn_r.fiber_length	ercspn_l.activation	ercspn_l.fiber_length	intobl_r.activation	intobl_r.fiber_length	intobl_l.activation	intobl_l.fiber_length	extobl_r.activation	extobl_r.fiber_length	extobl_l.activation	extobl_l.fiber_length
      0.10680662	     30.00000000	      0.00000000	      0.00000000	     -0.00000000	    -12.72030220	     -0.76049774	     -1.72554547	     -0.43868183	      0.88406315	      0.37908669	     51.66754561	      1.51058038	    -11.72191925	    -57.73882686	    -57.73882686	     18.94765624	     28.78361807	      0.00001318	     52.13915936	     -0.00000000	     -9.99811353	   -101.98648811	   -101.98648811	      6.49999992	      0.00000000	     -0.00000000	    -22.53629503	     -2.55328480	      7.83615936	      0.00000000	     -8.91003344	      0.00000000	     72.06682857	     46.23690339	      0.00000000	      4.87402477	      0.00000000	     -8.91003344	      0.00000000	     72.06682857	     46.23690339	      0.00000000	      4.87402477	      0.00000000	      0.00000000	      0.00000000	     -0.00000000	     24.74931970	   -115.19860997	   -253.00424111	     -0.34901949	     -1.23728725	      0.61875129	    162.52643982	    244.84141149	    -10.55958946	   -271.79613859	   -271.79613859	      9.75440074	     11.67923427	      0.00000000	     -0.00000000	     -0.00000000	      0.00000000	     -0.00000000	      0.00000000	     -0.00000000	      0.00000000	      0.00000000	   -212.82832646	      4.88603106	    248.90893986	      0.00000000	     -0.00000000	      0.00000000	     -0.00000000	     -0.00000000	      0.00000000	      0.00000000	      0.00000000	      0.00000000	      0.00000000	     -0.00000000	     -0.00000000	      0.00000000	     -0.00000000	      0.18722721	      0.05919877	      0.21681640	      0.10106766	      0.36925583	      0.08321289	      0.11017471	      0.07686497	      0.18053570	      0.06774690	      0.35952008	      0.04756043	      0.14116967	      0.06954582	      0.44975627	      0.23425591	      0.32217093	      0.11615141	      0.17941834	      0.15569840	      0.01930242	      0.43477005	      0.01930242	      0.09094034	      0.01930242	      0.12120851	      0.05040297	      0.07518818	      0.07072176	      0.10958841	      0.12175095	      0.14784941	      0.02827400	      0.08583960	      0.01930242	      0.05555052	      0.01930242	      0.33109230	      0.15939623	      0.11278109	      0.16000707	      0.12674407	      0.14879652	      0.15244115	      0.01930242	      0.07225312	      0.01930242	      0.06575142	      0.16071623	      0.05140759	      0.35483794	      0.02250381	      0.57639272	      0.02788715	      0.24526037	      0.11166312	      0.37451196	      0.09562406	      0.43348870	      0.09769652	      0.39007601	      0.09120828	      0.38410827	      0.05392724	      0.38097869	      0.05722830	      0.62631119	      0.05560459	      0.74297188	      0.02652286	      0.73907963	      0.02118894	      0.75854943	      0.03157486	      0.12916806	      0.06595198	      0.96603748	      0.06336424	      0.96604586	      0.05841725	      0.53884528	      0.08246651	      0.50293860	      0.08854875	      0.46732333	      0.09078197	      0.17827417	      0.13559520	      0.26298881	      0.13536425	      0.01930242	      0.08950020	      0.02910528	      0.07059612	      0.07055258	      0.10749459	      0.04713193	      0.10964355
      0.10694787	     30.00000000	      0.00000000	      0.00000000	     -0.00000000	    -12.71681345	     -0.77677406	     -1.76127971	     -0.43873117	      0.88388844	      0.37917411	     51.69049963	      1.54517233	    -11.72342713	    -57.77720198	    -57.77720198	     18.94900158	     28.78523583	      0.00001318	     52.13915936	     -0.00000000	     -9.99811353	   -101.98648811	   -101.98648811	      6.49999992	      0.00000000	     -0.00000000	    -22.56636046	     -2.55261394	      7.87130618	      0.00000000	     -8.91003344	      0.00000000	     72.06682857	     46.23690339	      0.00000000	      4.87402477	      0.00000000	     -8.91003344	      0.00000000	     72.06682857	     46.23690339	      0.00000000	      4.87402477	      0.00000000	      0.00000000	      0.00000000	     -0.00000000	     24.64611934	   -115.25022281	   -252.93982431	     -0.34963346	     -1.23633794	      0.61896989	    162.46881913	    244.92957488	    -10.78996918	   -271.53916084	   -271.53916084	      9.29385879	     11.22501361	      0.00000000	     -0.00000000	     -0.00000000	      0.00000000	     -0.00000000	      0.00000000	     -0.00000000	      0.00000000	      0.00000000	   -212.85380837	      4.61252147	    248.71816058	      0.00000000	     -0.00000000	      0.00000000	     -0.00000000	     -0.00000000	      0.00000000	      0.00000000	      0.00000000	      0.00000000	      0.00000000	     -0.00000000	     -0.00000000	      0.00000000	     -0.00000000	      0.18713091	      0.05921065	      0.21678699	      0.10109005	      0.36943025	      0.08324079	      0.11008970	      0.07687244	      0.18052633	      0.06776045	      0.35976602	      0.04757933	      0.14100895	      0.06953353	      0.44965372	      0.23423453	      0.32212220	      0.11614607	      0.17926184	      0.15567736	      0.01928506	      0.43474994	      0.01928506	      0.09089014	      0.01928506	      0.12117266	      0.05032093	      0.07516606	      0.07059196	      0.10957696	      0.12154248	      0.14785672	      0.02823903	      0.08583901	      0.01928506	      0.05551770	      0.01928506	      0.33104824	      0.15930117	      0.11280681	      0.15988730	      0.12676912	      0.14853600	      0.15245119	      0.01928506	      0.07223226	      0.01928506	      0.06572731	      0.16044962	      0.05141229	      0.35490638	      0.02251674	      0.57653745	      0.02790947	      0.24538081	      0.11167739	      0.37474192	      0.09564745	      0.43373689	      0.09772099	      0.39031467	      0.09123149	      0.38405083	      0.05392097	      0.38091155	      0.05722107	      0.62647208	      0.05560821	      0.74139897	      0.02652115	      0.73753441	      0.02118680	      0.75686412	      0.03157401	      0.12892735	      0.06590834	      0.96628271	      0.06336774	      0.96629103	      0.05841997	      0.53952344	      0.08246449	      0.50292561	      0.08854500	      0.46731815	      0.09077771	      0.17849814	      0.13560505	      0.26312893	      0.13538990	      0.01928506	      0.08949892	      0.02906864	      0.07055731	      0.07042319	      0.10744293	      0.04705718	      0.10964314
      0.10708913	     30.00000000	      0.00000000	      0.00000000	     -0.00000000	    -12.71333931	     -0.79305768	     -1.79700477	     -0.43878060	      0.88371386	      0.37926156	     51.71344553	      1.57977666	    -11.72496760	    -57.81554078	    -57.81554078	     18.95028205	     28.78678987	      0.00001318	     52.13915936	     -0.00000000	     -9.99811353	   -101.98648811	   -101.98648811	      6.49999992	      0.00000000	     -0.00000000	    -22.59642943	     -2.55198166	      7.90642596	      0.00000000	     -8.91003344	      0.00000000	     72.06682857	     46.23690339	      0.00000000	      4.87402477	      0.00000000	     -8.91003344	      0.00000000	     72.06682857	     46.23690339	      0.00000000	      4.87402477	      0.00000000	      0.00000000	      0.00000000	     -0.00000000	     24.54253160	   -115.30197631	   -252.87428557	     -0.35024596	     -1.23539136	      0.61918703	    162.41137308	    245.01663108	    -11.02090394	   -271.28172908	   -271.28172908	      8.83613244	     10.77913664	      0.00000000	     -0.00000000	     -0.00000000	      0.00000000	     -0.00000000	      0.00000000	     -0.00000000	      0.00000000	      0.00000000	   -212.87838011	      4.33969588	    248.52601968	      0.00000000	     -0.00000000	      0.00000000	     -0.00000000	     -0.00000000	      0.00000000	      0.00000000	      0.00000000	      0.00000000	      0.00000000	     -0.00000000	     -0.00000000	      0.00000000	     -0.00000000	      0.18703521	      0.05922253	      0.21675809	      0.10111243	      0.36960477	      0.08326868	      0.11000514	      0.07687992	      0.18051765	      0.06777401	      0.36001281	      0.04759823	      0.14084823	      0.06952125	      0.44955110	      0.23421317	      0.32207343	      0.11614073	      0.17910543	      0.15565635	      0.01926774	      0.43472985	      0.01926774	      0.09083994	      0.01926774	      0.12113679	      0.05023908	      0.07514392	      0.07046247	      0.10956549	      0.12133438	      0.14786401	      0.02820413	      0.08583844	      0.01926774	      0.05548487	      0.01926774	      0.33100420	      0.15920620	      0.11283251	      0.15976762	      0.12679415	      0.14827589	      0.15246119	      0.01926774	      0.07221140	      0.01926774	      0.06570321	      0.16018318	      0.05141697	      0.35497241	      0.02252966	      0.57668083	      0.02793179	      0.24550106	      0.11169164	      0.37497177	      0.09567080	      0.43398498	      0.09774542	      0.39055321	      0.09125467	      0.38399312	      0.05391467	      0.38084412	      0.05721382	      0.62663225	      0.05561181	      0.73983727	      0.02651947	      0.73600014	      0.02118470	      0.75519110	      0.03157320	      0.12868674	      0.06586574	      0.96652613	      0.06337122	      0.96653438	      0.05842267	      0.54019438	      0.08246248	      0.50291268	      0.08854128	      0.46731299	      0.09077349	      0.17872197	      0.13561491	      0.26326827	      0.13541552	      0.01926774	      0.08949770	      0.02903207	      0.07051850	      0.07029412	      0.10739127	      0.04698259	      0.10964270
      0.10727878	     30.00000000	      0.00000000	      0.00000000	     -0.00000000	    -12.70869818	     -0.81493072	     -1.84495261	     -0.43884710	      0.88347970	      0.37937901	     51.74423872	      1.62625376	    -11.72708715	    -57.86695515	    -57.86695515	     18.95189970	     28.78877732	      0.00001318	     52.13915936	     -0.00000000	     -9.99811353	   -101.98648811	   -101.98648811	      6.49999992	      0.00000000	     -0.00000000	    -22.63680374	     -2.55119331	      7.95353303	      0.00000000	     -8.91003344	      0.00000000	     72.06682857	     46.23690339	      0.00000000	      4.87402477	      0.00000000	     -8.91003344	      0.00000000	     72.06682857	     46.23690339	      0.00000000	      4.87402477	      0.00000000	      0.00000000	      0.00000000	     -0.00000000	     24.40285442	   -115.37168040	   -252.78452656	     -0.35106597	     -1.23412483	      0.61947625	    162.33451392	    245.13176668	    -11.33219238	   -270.93542434	   -270.93542434	      8.22386370	     10.17798451	      0.00000000	     -0.00000000	     -0.00000000	      0.00000000	     -0.00000000	      0.00000000	     -0.00000000	      0.00000000	      0.00000000	   -212.90994345	      3.97449946	    248.26591785	      0.00000000	     -0.00000000	      0.00000000	     -0.00000000	     -0.00000000	      0.00000000	      0.00000000	      0.00000000	      0.00000000	      0.00000000	     -0.00000000	     -0.00000000	      0.00000000	     -0.00000000	      0.18690770	      0.05923849	      0.21672007	      0.10114247	      0.36983920	      0.08330610	      0.10989233	      0.07688998	      0.18050708	      0.06779222	      0.36034545	      0.04762360	      0.14063246	      0.06950477	      0.44941320	      0.23418450	      0.32200793	      0.11613357	      0.17889557	      0.15562817	      0.01924453	      0.43470292	      0.01924453	      0.09077254	      0.01924453	      0.12108859	      0.05012948	      0.07511417	      0.07028913	      0.10955004	      0.12105559	      0.14787376	      0.02815739	      0.08583772	      0.01924453	      0.05544078	      0.01924453	      0.33094511	      0.15907884	      0.11286700	      0.15960712	      0.12682773	      0.14792734	      0.15247457	      0.01924453	      0.07218343	      0.01924453	      0.06567088	      0.15982573	      0.05142321	      0.35505725	      0.02254701	      0.57687119	      0.02796175	      0.24566223	      0.11171075	      0.37528017	      0.09570211	      0.43431787	      0.09777818	      0.39087327	      0.09128574	      0.38391519	      0.05390618	      0.38075315	      0.05720405	      0.62684615	      0.05561659	      0.73775806	      0.02651725	      0.73395735	      0.02118192	      0.75296409	      0.03157216	      0.12836393	      0.06581015	      0.96685009	      0.06337586	      0.96685826	      0.05842629	      0.54108383	      0.08245980	      0.50289541	      0.08853633	      0.46730611	      0.09076789	      0.17902222	      0.13562819	      0.26345412	      0.13544987	      0.01924453	      0.08949615	      0.02898309	      0.07046641	      0.07012133	      0.10732196	      0.04688271	      0.10964205
